{
  "accessors": [
    {
      "bufferView": 2,
      "componentType": 5126,
      "count": 765,
      "max": [
        3.2974483966827393,
        1.2905772924423218,
        0.2486380636692047
      ],
      "min": [
        -1.5624977350234985,
        -1.3098410367965698,
        -0.1639818251132965
      ],
      "type": "VEC3"
    },
    {
      "bufferView": 2,
      "byteOffset": 9180,
      "componentType": 5126,
      "count": 765,
      "max": [
        1.0,
        1.0,
        1.0
      ],
      "min": [
        -1.0,
        -1.0,
        -1.0
      ],
      "type": "VEC3"
    },
    {
      "bufferView": 1,
      "componentType": 5126,
      "count": 765,
      "max": [
        0.9685661196708679,
        1.0
      ],
      "min": [
        0.015057176351547241,
        0.0
      ],
      "type": "VEC2"
    },
    {
      "bufferView": 0,
      "componentType": 5125,
      "count": 1425,
      "type": "SCALAR"
    },
    {
      "bufferView": 2,
      "byteOffset": 18360,
      "componentType": 5126,
      "count": 404,
      "max": [
        3.2974483966827393,
        1.2905772924423218,
        0.2486380636692047
      ],
      "min": [
        -1.5624977350234985,
        -1.3098410367965698,
        -0.1639818251132965
      ],
      "type": "VEC3"
    },
    {
      "bufferView": 2,
      "byteOffset": 23208,
      "componentType": 5126,
      "count": 404,
      "max": [
        1.0,
        1.0,
        0.9975842237472534
      ],
      "min": [
        -1.0,
        -1.0,
        -1.2272748790564947e-06
      ],
      "type": "VEC3"
    },
    {
      "bufferView": 1,
      "byteOffset": 6120,
      "componentType": 5126,
      "count": 404,
      "max": [
        0.9095709919929504,
        0.9832578301429749
      ],
      "min": [
        0.07610304653644562,
        0.05637436360120773
      ],
      "type": "VEC2"
    },
    {
      "bufferView": 0,
      "byteOffset": 5700,
      "componentType": 5125,
      "count": 729,
      "type": "SCALAR"
    }
  ],
  "asset": {
    "extras": {
      "author": "wojteX (https://sketchfab.com/wojteX)",
      "license": "CC-BY-4.0 (http://creativecommons.org/licenses/by/4.0/)",
      "source": "https://sketchfab.com/3d-models/esp32-wroom-32-low-poly-photorealistic-af0851c326ef4cbaa42439f801acbe98",
      "title": "ESP32 WROOM 32 - Low Poly Photorealistic"
    },
    "generator": "Sketchfab-16.59.0",
    "version": "2.0"
  },
  "bufferViews": [
    {
      "buffer": 0,
      "byteLength": 8616,
      "name": "floatBufferViews",
      "target": 34963
    },
    {
      "buffer": 0,
      "byteLength": 9352,
      "byteOffset": 8616,
      "byteStride": 8,
      "name": "floatBufferViews",
      "target": 34962
    },
    {
      "buffer": 0,
      "byteLength": 28056,
      "byteOffset": 17968,
      "byteStride": 12,
      "name": "floatBufferViews",
      "target": 34962
    }
  ],
  "buffers": [
    {
      "byteLength": 46024,
      "uri": "scene.bin"
    }
  ],
  "images": [
    {
      "uri": "textures/material_baseColor.jpeg"
    },
    {
      "uri": "textures/material_metallicRoughness.png"
    },
    {
      "uri": "textures/ESP_SIDE_baseColor.jpeg"
    }
  ],
  "materials": [
    {
      "doubleSided": true,
      "name": "material",
      "pbrMetallicRoughness": {
        "baseColorTexture": {
          "index": 0
        },
        "metallicRoughnessTexture": {
          "index": 1
        }
      }
    },
    {
      "doubleSided": true,
      "name": "ESP_SIDE",
      "pbrMetallicRoughness": {
        "baseColorTexture": {
          "index": 2
        },
        "metallicFactor": 0.0,
        "roughnessFactor": 0.8211145618000169
      }
    }
  ],
  "meshes": [
    {
      "name": "Cube.025_ESP_0",
      "primitives": [
        {
          "attributes": {
            "NORMAL": 1,
            "POSITION": 0,
            "TEXCOORD_0": 2
          },
          "indices": 3,
          "material": 0,
          "mode": 4
        }
      ]
    },
    {
      "name": "Cube.025_ESP SIDE_0",
      "primitives": [
        {
          "attributes": {
            "NORMAL": 5,
            "POSITION": 4,
            "TEXCOORD_0": 6
          },
          "indices": 7,
          "material": 1,
          "mode": 4
        }
      ]
    }
  ],
  "nodes": [
    {
      "children": [
        1
      ],
      "matrix": [
        1.0,
        0.0,
        0.0,
        0.0,
        0.0,
        2.220446049250313e-16,
        -1.0,
        0.0,
        0.0,
        1.0,
        2.220446049250313e-16,
        0.0,
        0.0,
        0.0,
        0.0,
        1.0
      ],
      "name": "Sketchfab_model"
    },
    {
      "children": [
        2
      ],
      "matrix": [
        0.009999999776482582,
        0.0,
        0.0,
        0.0,
        0.0,
        0.0,
        0.009999999776482582,
        0.0,
        0.0,
        -0.009999999776482582,
        0.0,
        0.0,
        0.0,
        0.0,
        0.0,
        1.0
      ],
      "name": "esp.fbx"
    },
    {
      "children": [
        3
      ],
      "name": "RootNode"
    },
    {
      "children": [
        4,
        5
      ],
      "matrix": [
        1.0658555030822754,
        0.0,
        0.0,
        0.0,
        0.0,
        -1.7363747283428277e-07,
        -1.065779209136949,
        0.0,
        0.0,
        1.065779209136949,
        -1.7363747283428277e-07,
        0.0,
        0.0,
        0.0,
        0.0,
        1.0
      ],
      "name": "Cube.025"
    },
    {
      "mesh": 0,
      "name": "Cube.025_ESP_0"
    },
    {
      "mesh": 1,
      "name": "Cube.025_ESP SIDE_0"
    }
  ],
  "samplers": [
    {
      "magFilter": 9729,
      "minFilter": 9987,
      "wrapS": 10497,
      "wrapT": 10497
    }
  ],
  "scene": 0,
  "scenes": [
    {
      "name": "Sketchfab_Scene",
      "nodes": [
        0
      ]
    }
  ],
  "textures": [
    {
      "sampler": 0,
      "source": 0
    },
    {
      "sampler": 0,
      "source": 1
    },
    {
      "sampler": 0,
      "source": 2
    }
  ]
}
